HIERARCHY
ROOT Hips
{
    OFFSET 0.000000 0.000000 0.000000
    CHANNELS 6 Xposition Yposition Zposition Zrotation Yrotation Xrotation
    JOINT Chest
    {
        OFFSET 0.000000 1.634758 -0.000000
        CHANNELS 3 Zrotation Yrotation Xrotation
        JOINT Chest2
        {
            OFFSET 0.000000 2.197341 0.000000
            CHANNELS 3 Zrotation Yrotation Xrotation
            JOINT Neck
            {
                OFFSET 0.000000 0.961544 0.000000
                CHANNELS 3 Zrotation Yrotation Xrotation
                JOINT Head
                {
                    OFFSET 0.000000 0.632542 -0.032565
                    CHANNELS 3 Zrotation Yrotation Xrotation
                    End Site
                    {
                        OFFSET -0.000001 0.439502 2.922845
                    }
                }
            }
            JOINT LeftCollar
            {
                OFFSET 0.167536 0.778237 -0.168280
                CHANNELS 3 Zrotation Yrotation Xrotation
                JOINT LeftShoulder
                {
                    OFFSET 0.831514 -0.002900 0.006458
                    CHANNELS 3 Zrotation Yrotation Xrotation
                    JOINT LeftElbow
                    {
                        OFFSET 2.272872 -0.026639 0.059314
                        CHANNELS 3 Zrotation Yrotation Xrotation
                        JOINT LeftWrist
                        {
                            OFFSET 2.081982 -0.024402 0.054333
                            CHANNELS 3 Zrotation Yrotation Xrotation
                            JOINT LeftHandThumb1
                            {
                                OFFSET 0.218903 -0.128645 0.283837
                                CHANNELS 3 Zrotation Yrotation Xrotation
                                JOINT LeftHandThumb2
                                {
                                    OFFSET 0.137157 -0.025101 0.077902
                                    CHANNELS 3 Zrotation Yrotation Xrotation
                                    JOINT LeftHandThumb3
                                    {
                                        OFFSET 0.167119 -0.074446 0.008275
                                        CHANNELS 3 Zrotation Yrotation Xrotation
                                        End Site
                                        {
                                            OFFSET 0.254644 -0.056200 0.061920
                                        }
                                    }
                                }
                            }
                            JOINT LeftHandFore1
                            {
                                OFFSET 0.767340 -0.016076 0.196678
                                CHANNELS 3 Zrotation Yrotation Xrotation
                                JOINT LeftHandFore2
                                {
                                    OFFSET 0.204052 -0.072948 -0.006071
                                    CHANNELS 3 Zrotation Yrotation Xrotation
                                    JOINT LeftHandFore3
                                    {
                                        OFFSET 0.112767 -0.063606 0.000847
                                        CHANNELS 3 Zrotation Yrotation Xrotation
                                        End Site
                                        {
                                            OFFSET 0.139034 -0.134096 0.007381
                                        }
                                    }
                                }
                            }
                            JOINT LeftHandMiddle1
                            {
                                OFFSET 0.709887 -0.008320 0.018526
                                CHANNELS 3 Zrotation Yrotation Xrotation
                                JOINT LeftHandMiddle2
                                {
                                    OFFSET 0.226796 -0.092498 0.008451
                                    CHANNELS 3 Zrotation Yrotation Xrotation
                                    JOINT LeftHandMiddle3
                                    {
                                        OFFSET 0.091433 -0.113929 0.006585
                                        CHANNELS 3 Zrotation Yrotation Xrotation
                                        End Site
                                        {
                                            OFFSET 0.101660 -0.212566 0.010548
                                        }
                                    }
                                }
                            }
                            JOINT LeftHandRing1
                            {
                                OFFSET 0.743817 -0.005823 -0.153668
                                CHANNELS 3 Zrotation Yrotation Xrotation
                                JOINT LeftHandRing2
                                {
                                    OFFSET 0.328910 -0.128288 -0.009693
                                    CHANNELS 3 Zrotation Yrotation Xrotation
                                    JOINT LeftHandRing3
                                    {
                                        OFFSET 0.082298 -0.108768 0.001408
                                        CHANNELS 3 Zrotation Yrotation Xrotation
                                        End Site
                                        {
                                            OFFSET 0.031282 -0.115934 -0.000545
                                        }
                                    }
                                }
                            }
                            JOINT LeftHandLittle1
                            {
                                OFFSET 0.689408 -0.053302 -0.308304
                                CHANNELS 3 Zrotation Yrotation Xrotation
                                JOINT LeftHandLittle2
                                {
                                    OFFSET 0.180508 -0.071312 -0.019638
                                    CHANNELS 3 Zrotation Yrotation Xrotation
                                    JOINT LeftHandLittle3
                                    {
                                        OFFSET 0.075919 -0.093133 -0.007671
                                        CHANNELS 3 Zrotation Yrotation Xrotation
                                        End Site
                                        {
                                            OFFSET 0.145774 -0.120829 0.020949
                                        }
                                    }
                                }
                            }
                        }
                    }
                }
            }
            JOINT RightCollar
            {
                OFFSET -0.167536 0.778237 -0.168280
                CHANNELS 3 Zrotation Yrotation Xrotation
                JOINT RightShoulder
                {
                    OFFSET -0.831514 -0.002900 0.006457
                    CHANNELS 3 Zrotation Yrotation Xrotation
                    JOINT RightElbow
                    {
                        OFFSET -2.272872 -0.026639 0.059313
                        CHANNELS 3 Zrotation Yrotation Xrotation
                        JOINT RightWrist
                        {
                            OFFSET -2.081982 -0.024402 0.054331
                            CHANNELS 3 Zrotation Yrotation Xrotation
                            JOINT RightHandThumb1
                            {
                                OFFSET -0.218911 -0.128571 0.283837
                                CHANNELS 3 Zrotation Yrotation Xrotation
                                JOINT RightHandThumb2
                                {
                                    OFFSET -0.137157 -0.025101 0.077902
                                    CHANNELS 3 Zrotation Yrotation Xrotation
                                    JOINT RightHandThumb3
                                    {
                                        OFFSET -0.158237 -0.090258 0.018818
                                        CHANNELS 3 Zrotation Yrotation Xrotation
                                        End Site
                                        {
                                            OFFSET -0.225608 -0.107946 0.096359
                                        }
                                    }
                                }
                            }
                            JOINT RightHandFore1
                            {
                                OFFSET -0.767344 -0.015991 0.196679
                                CHANNELS 3 Zrotation Yrotation Xrotation
                                JOINT RightHandFore2
                                {
                                    OFFSET -0.204072 -0.072902 -0.006075
                                    CHANNELS 3 Zrotation Yrotation Xrotation
                                    JOINT RightHandFore3
                                    {
                                        OFFSET -0.112504 -0.063730 -0.006599
                                        CHANNELS 3 Zrotation Yrotation Xrotation
                                        End Site
                                        {
                                            OFFSET -0.138320 -0.134483 -0.012186
                                        }
                                    }
                                }
                            }
                            JOINT RightHandMiddle1
                            {
                                OFFSET -0.709887 -0.008302 0.018525
                                CHANNELS 3 Zrotation Yrotation Xrotation
                                JOINT RightHandMiddle2
                                {
                                    OFFSET -0.226783 -0.092519 0.008452
                                    CHANNELS 3 Zrotation Yrotation Xrotation
                                    JOINT RightHandMiddle3
                                    {
                                        OFFSET -0.091548 -0.114003 0.002603
                                        CHANNELS 3 Zrotation Yrotation Xrotation
                                        End Site
                                        {
                                            OFFSET -0.101916 -0.212692 0.002327
                                        }
                                    }
                                }
                            }
                            JOINT RightHandRing1
                            {
                                OFFSET -0.743819 -0.005785 -0.153669
                                CHANNELS 3 Zrotation Yrotation Xrotation
                                JOINT RightHandRing2
                                {
                                    OFFSET -0.328919 -0.128264 -0.009692
                                    CHANNELS 3 Zrotation Yrotation Xrotation
                                    JOINT RightHandRing3
                                    {
                                        OFFSET -0.082056 -0.108424 -0.010766
                                        CHANNELS 3 Zrotation Yrotation Xrotation
                                        End Site
                                        {
                                            OFFSET -0.031136 -0.115741 -0.007408
                                        }
                                    }
                                }
                            }
                            JOINT RightHandLittle1
                            {
                                OFFSET -0.689403 -0.053298 -0.308303
                                CHANNELS 3 Zrotation Yrotation Xrotation
                                JOINT RightHandLittle2
                                {
                                    OFFSET -0.180512 -0.071308 -0.019638
                                    CHANNELS 3 Zrotation Yrotation Xrotation
                                    JOINT RightHandLittle3
                                    {
                                        OFFSET -0.075033 -0.092120 -0.019479
                                        CHANNELS 3 Zrotation Yrotation Xrotation
                                        End Site
                                        {
                                            OFFSET -0.139496 -0.113738 -0.062393
                                        }
                                    }
                                }
                            }
                        }
                    }
                }
            }
        }
    }
    JOINT LeftHip
    {
        OFFSET 0.685143 0.673822 -0.044491
        CHANNELS 3 Zrotation Yrotation Xrotation
        JOINT LeftKnee
        {
            OFFSET 0.085364 -3.750208 0.017676
            CHANNELS 3 Zrotation Yrotation Xrotation
            JOINT LeftAnkle
            {
                OFFSET 0.094583 -4.155206 0.019585
                CHANNELS 3 Zrotation Yrotation Xrotation
                JOINT LeftToe
                {
                    OFFSET -0.000000 -0.395925 0.621478
                    CHANNELS 3 Zrotation Yrotation Xrotation
                    End Site
                    {
                        OFFSET -0.000000 -0.077878 0.321152
                    }
                }
            }
        }
    }
    JOINT RightHip
    {
        OFFSET -0.685143 0.673822 -0.044492
        CHANNELS 3 Zrotation Yrotation Xrotation
        JOINT RightKnee
        {
            OFFSET -0.085364 -3.750208 0.017677
            CHANNELS 3 Zrotation Yrotation Xrotation
            JOINT RightAnkle
            {
                OFFSET -0.094583 -4.155206 0.019585
                CHANNELS 3 Zrotation Yrotation Xrotation
                JOINT RightToe
                {
                    OFFSET -0.000000 -0.395925 0.621478
                    CHANNELS 3 Zrotation Yrotation Xrotation
                    End Site
                    {
                        OFFSET -0.000000 -0.077878 0.321152
                    }
                }
            }
        }
    }
}
MOTION
Frames: 4
Frame Time: 0.033333
5.433868 8.351595 -5.927809 172.055069 5.841066 -169.911301 -18.365892 8.150879 -2.581773 -2.636456 -1.197041 -6.909876 -3.036237 -0.140835 5.691506 0.098978 -1.921680 13.057026 1.434152 0.496467 0.020481 -0.401905 49.295231 -24.934477 178.609848 -21.206575 -179.747086 -17.146135 6.782231 1.031597 -0.000001 -0.000005 0.000003 -22.617687 8.720128 12.862057 26.835958 24.817837 13.827122 -54.203602 3.055657 -3.043853 -94.526581 -3.371279 1.455679 -60.756031 -1.044853 -0.619309 -56.736519 0.208720 0.992594 -80.190849 -1.360310 3.131638 -40.508755 -2.494706 3.944404 -63.474773 -2.513250 7.439693 -69.326927 -0.116942 0.440108 -25.061659 -1.708539 2.573666 -69.065552 -7.002106 15.179904 -65.206108 3.466350 7.463756 -38.126862 -3.986383 8.645623 14.494461 -2.716164 0.230817 61.555054 -26.725065 7.855475 -0.114293 31.558811 -0.411772 9.756452 -16.513670 34.990562 0.000005 -0.000001 0.000010 -7.016691 2.936494 -7.976540 -0.000001 -0.000002 -0.000009 -25.502867 4.158355 0.395114 -8.018188 1.902718 0.575209 -24.319096 1.260343 -1.079177 -3.743496 -0.100082 0.022260 -29.071741 -0.005049 -1.226289 -12.008186 0.755163 0.035821 2.957477 0.056066 0.319694 -29.452545 2.115269 0.665032 -18.518089 3.102490 1.804276 -16.317541 -0.636732 -3.080598 -21.203970 7.505496 2.058051 1.932374 3.765586 -6.703050 -20.245245 31.657887 -8.526644 -0.000000 -0.000002 -0.000000 6.751472 13.594477 -8.606135 0.021570 0.100484 -1.515498 4.832905 -15.452965 -36.926018 -0.106163 -0.515423 23.279388 -2.467848 3.552891 0.990555 0.020641 0.090169 -0.737303
5.424737 8.353990 -5.935296 171.522781 5.454262 -169.859833 -14.886442 8.454045 -2.757709 -4.185984 -1.192506 -6.610419 -3.153892 -0.178938 5.725712 0.086144 -1.672647 13.106705 1.527176 0.460472 0.017859 -8.953351 51.287674 -32.730099 178.593674 -24.284483 -179.704758 -21.746607 -3.591853 -18.744802 0.000000 -0.000007 -0.000003 -22.617683 8.720129 12.862062 26.835957 24.817835 13.827128 -54.203606 3.055651 -3.043846 -94.526581 -3.371279 1.455678 -60.756031 -1.044853 -0.619308 -56.736519 0.208715 0.992599 -80.190849 -1.360311 3.131636 -40.508755 -2.494705 3.944407 -63.474781 -2.513255 7.439695 -69.326942 -0.116945 0.440109 -25.061657 -1.708539 2.573663 -69.065552 -7.002110 15.179914 -65.206108 3.466355 7.463761 -38.126862 -3.986386 8.645623 14.338389 -3.122534 0.187465 61.021580 -31.312080 13.629140 -0.197948 39.679287 -0.555938 10.961591 -19.896378 30.436041 -0.000004 0.000003 -0.000002 -7.016690 2.936494 -7.976538 0.000002 0.000002 -0.000002 -24.817921 3.947197 0.444214 -8.018189 1.902718 0.575212 -23.665062 1.265594 -1.094427 -4.491774 -0.119142 0.027997 -28.983717 -0.004118 -1.222675 -12.008181 0.755155 0.035812 1.859075 0.022180 0.206228 -29.276865 2.101928 0.664199 -18.518089 3.102491 1.804278 -16.324223 -0.440556 -3.147375 -21.203972 7.505496 2.058058 1.932381 3.765588 -6.703052 -20.761784 31.754564 -8.489631 -0.000001 -0.000000 0.000000 6.094457 13.175632 -8.619630 0.017618 0.081716 -1.464238 4.668623 -16.477335 -37.715931 -0.115430 -0.536453 24.288961 -2.646946 4.047496 0.717822 0.017532 0.075899 -0.624094
5.409836 8.357912 -5.940575 170.689194 4.531932 -169.737167 -10.577297 10.267480 -3.045062 -3.815104 -1.468801 -6.486750 -3.293642 -0.395436 5.870434 0.139250 -2.702675 13.410377 1.486896 0.775942 0.025794 -23.138157 46.691669 -44.808582 178.570557 -27.938374 -179.651733 -25.054043 -12.295149 -34.430897 -0.000003 -0.000003 -0.000004 -22.617680 8.720127 12.862064 26.835953 24.817837 13.827125 -54.203609 3.055651 -3.043848 -94.526588 -3.371281 1.455675 -60.756035 -1.044853 -0.619310 -56.736511 0.208721 0.992597 -80.190849 -1.360309 3.131638 -40.508755 -2.494709 3.944405 -63.474766 -2.513247 7.439696 -69.326942 -0.116946 0.440108 -25.061647 -1.708533 2.573668 -69.065544 -7.002103 15.179913 -65.206123 3.466354 7.463758 -38.126854 -3.986387 8.645624 13.769543 -3.261354 0.260184 52.562256 -34.989704 33.512466 -0.354719 49.335773 -0.779669 12.990405 -22.395123 13.807862 -0.000002 0.000005 0.000005 -7.016688 2.936497 -7.976550 -0.000002 -0.000003 0.000000 -23.991152 3.698801 0.501302 -8.018189 1.902717 0.575205 -22.897049 1.272483 -1.112396 -5.324548 -0.140516 0.034508 -28.877371 -0.003001 -1.218309 -12.008180 0.755155 0.035817 0.569359 -0.018093 0.072895 -29.064627 2.085810 0.663165 -18.518089 3.102488 1.804280 -16.331036 -0.212477 -3.224413 -21.203976 7.505497 2.058054 1.932377 3.765586 -6.703060 -21.552837 31.852745 -8.436156 0.000000 -0.000000 0.000000 5.503654 12.170765 -8.571881 0.012954 0.059254 -1.298514 3.968353 -17.379343 -38.629555 -0.127456 -0.562342 25.543095 -2.639778 3.793152 0.328088 0.013987 0.059940 -0.495273
5.394268 8.362311 -5.945200 169.795364 3.431075 -169.590744 -7.146811 12.032744 -3.537786 -4.804306 -1.690773 -6.263192 -3.423328 -0.868409 6.070102 0.198197 -3.843856 13.793625 1.783491 0.875309 0.034974 -29.784191 38.804493 -55.504200 178.549133 -30.800564 -179.607681 -24.255285 -22.335594 -50.568409 0.000001 -0.000005 0.000007 -22.041901 7.220186 12.749379 26.084190 24.344206 13.289106 -52.751080 2.603432 -3.004008 -92.136559 -3.240109 1.341853 -58.969505 -0.986137 -0.561119 -55.054684 0.191393 0.986058 -77.641731 -1.369362 3.073852 -39.282036 -2.434433 3.832301 -61.694496 -2.192265 7.311349 -67.018173 -0.052659 0.451829 -24.036198 -1.633203 2.486899 -67.074440 -6.452340 14.874446 -63.137745 3.612512 7.341433 -37.302410 -3.789847 8.616977 13.520399 -3.569711 0.287408 44.561691 -31.870817 58.350800 -0.486058 54.723969 -0.946509 15.296502 -24.729321 -2.707825 -0.000005 0.000003 0.000007 -7.016691 2.936494 -7.976538 0.000002 -0.000001 0.000000 -23.046583 3.423489 0.563667 -8.018188 1.902716 0.575205 -22.047625 1.281033 -1.132339 -6.213326 -0.163552 0.041570 -28.755756 -0.001724 -1.213305 -12.008183 0.755157 0.035816 -0.856923 -0.063349 -0.074652 -28.821920 2.067377 0.661961 -18.518087 3.102487 1.804275 -16.338005 0.038270 -3.308436 -21.203970 7.505498 2.058055 1.932380 3.765582 -6.703058 -22.365417 31.954638 -8.338328 -0.000000 0.000002 -0.000000 4.988355 10.992963 -8.462075 0.009155 0.041304 -1.132648 3.053140 -18.103275 -39.482563 -0.140190 -0.588248 26.811363 -2.520969 3.154705 -0.065815 0.010041 0.042552 -0.353317
